<?xml version="1.0" encoding="UTF-8"?>
<svg width="1080" height="1920" viewBox="0 0 1080 1920" xmlns="http://www.w3.org/2000/svg" role="img" aria-label="Planta de café - sin fondo">
  <defs>
    <filter id="shadow" x="-50%" y="-50%" width="200%" height="200%">
      <feDropShadow dx="0" dy="12" stdDeviation="24" flood-color="#000" flood-opacity="0.08"/>
    </filter>
  </defs>

  <!-- Grupo principal centrado (sin fondo) -->
  <g transform="translate(540,400)">
    <!-- tallo -->
    <path d="M0 0 C -10 140, -8 300, 0 420 C 6 480, 12 660, 0 820" stroke="#3b2f24" stroke-width="18" stroke-linecap="round" fill="none"/>

    <!-- hoja superior derecha -->
    <g transform="translate(50,120) rotate(12)">
      <path d="M0 0 C 140 -40, 260 40, 120 120 C 40 160, -20 80, 0 0 Z" fill="#3A6B43" stroke="#2a3e2d" stroke-width="8" stroke-linejoin="round"/>
      <path d="M20 20 C 80 0, 160 28, 100 90" stroke="#2a3e2d" stroke-width="6" stroke-linecap="round" fill="none" opacity="0.85"/>
    </g>

    <!-- hoja superior izquierda -->
    <g transform="translate(-50,160) rotate(-18)">
      <path d="M0 0 C -140 -40, -260 40, -120 120 C -40 160, 20 80, 0 0 Z" fill="#3A6B43" stroke="#2a3e2d" stroke-width="8" stroke-linejoin="round"/>
      <path d="M-20 20 C -80 0, -160 28, -100 90" stroke="#2a3e2d" stroke-width="6" stroke-linecap="round" fill="none" opacity="0.85"/>
    </g>

    <!-- hojas medias -->
    <g transform="translate(80,360) rotate(8)">
      <path d="M0 0 C 160 -30, 300 60, 160 180 C 80 220, 10 90, 0 0 Z" fill="#2f6a45" stroke="#21392a" stroke-width="8" stroke-linejoin="round"/>
      <path d="M30 40 C 120 10, 220 54, 140 150" stroke="#21392a" stroke-width="6" stroke-linecap="round" fill="none" opacity="0.9"/>
    </g>

    <g transform="translate(-90,420) rotate(-12)">
      <path d="M0 0 C -160 -30, -300 60, -160 180 C -80 220, -10 90, 0 0 Z" fill="#2f6a45" stroke="#21392a" stroke-width="8" stroke-linejoin="round"/>
      <path d="M-30 40 C -120 10, -220 54, -140 150" stroke="#21392a" stroke-width="6" stroke-linecap="round" fill="none" opacity="0.9"/>
    </g>

    <!-- hojas inferiores -->
    <g transform="translate(70,720) rotate(14)">
      <path d="M0 0 C 160 -40, 320 80, 180 200 C 90 250, 10 110, 0 0 Z" fill="#2b5f3e" stroke="#1f3328" stroke-width="8" stroke-linejoin="round"/>
      <path d="M40 60 C 130 20, 240 80, 160 170" stroke="#1f3328" stroke-width="6" stroke-linecap="round" fill="none" opacity="0.9"/>
    </g>

    <g transform="translate(-80,780) rotate(-16)">
      <path d="M0 0 C -160 -40, -320 80, -180 200 C -90 250, -10 110, 0 0 Z" fill="#2b5f3e" stroke="#1f3328" stroke-width="8" stroke-linejoin="round"/>
      <path d="M-40 60 C -130 20, -240 80, -160 170" stroke="#1f3328" stroke-width="6" stroke-linecap="round" fill="none" opacity="0.9"/>
    </g>

    <!-- Flores (blancas) -->
    <g transform="translate(0,220)">
      <g transform="translate(-40,-20) rotate(-6)">
        <circle cx="0" cy="0" r="6" fill="#D9C9A8"/>
        <path d="M0 0 m0 -28 a12 28 0 0 1 12 28 a12 28 0 0 1 -12 28 a12 28 0 0 1 -12 -28 a12 28 0 0 1 12 -28 z" fill="#FFFFFF" opacity="0.95"/>
      </g>
      <g transform="translate(40,10) rotate(8)">
        <circle cx="0" cy="0" r="6" fill="#D9C9A8"/>
        <path d="M0 0 m0 -28 a12 28 0 0 1 12 28 a12 28 0 0 1 -12 28 a12 28 0 0 1 -12 -28 a12 28 0 0 1 12 -28 z" fill="#FFFFFF" opacity="0.95"/>
      </g>
    </g>

    <!-- Cerezas (frutos) -->
    <g transform="translate(0,520)">
      <g transform="translate(60,40)">
        <circle cx="0" cy="0" r="28" fill="#C43B2F" stroke="#7a1f1a" stroke-width="6"/>
        <circle cx="-6" cy="-6" r="6" fill="#FF7B6A" opacity="0.9"/>
      </g>
      <g transform="translate(-60,60)">
        <circle cx="0" cy="0" r="28" fill="#C43B2F" stroke="#7a1f1a" stroke-width="6"/>
        <circle cx="-6" cy="-6" r="6" fill="#FF7B6A" opacity="0.9"/>
      </g>
      <g transform="translate(20,100)">
        <circle cx="0" cy="0" r="28" fill="#C43B2F" stroke="#7a1f1a" stroke-width="6"/>
        <circle cx="-6" cy="-6" r="6" fill="#FF7B6A" opacity="0.9"/>
      </g>
      <g transform="translate(-20,140)">
        <circle cx="0" cy="0" r="28" fill="#C43B2F" stroke="#7a1f1a" stroke-width="6"/>
        <circle cx="-6" cy="-6" r="6" fill="#FF7B6A" opacity="0.9"/>
      </g>
    </g>

  </g>

  <!-- sombra sutil (opcional), con baja opacidad para que funcione sobre cualquier fondo -->
  <ellipse cx="540" cy="1700" rx="260" ry="40" fill="#000" opacity="0.04"/>

</svg>
